<svg xmlns="http://www.w3.org/2000/svg" viewBox="215.8644 109.504 64.215 64" width="64.215px" height="64px">
  <g>
    <rect x="135.53" y="143.96" width="64" height="64" style="stroke: rgb(0, 0, 0); fill: #efb100; stroke-width: 0px;"
      transform="matrix(1, 0, 0.003359, 1, 79.8508, -34.456)"></rect>
    <g transform="matrix(2.39949, 0, 0, 2.4, -329.575, -279.333)">
      <path
        d="M 248.487 172.474 L 248.487 167.934 C 248.487 166.394 246.82 165.432 245.487 166.202 C 244.868 166.559 244.487 167.219 244.487 167.934 L 244.487 170.934"
        style="stroke-linecap: round; fill: none; stroke: rgb(0, 0, 0); stroke-width: 1.66684px;"></path>
      <path
        d="M 236.099 176.458 C 234.963 174.447 232.076 174.421 230.903 176.41 C 229.73 178.399 231.15 180.912 233.459 180.934 C 233.813 180.937 234.166 180.877 234.499 180.758"
        style="stroke-linecap: round; fill: none; stroke: rgb(0, 0, 0); stroke-width: 1.66684px;"></path>
      <path
        d="M 246.487 184.934 L 238.487 184.934 C 236.278 184.934 234.487 183.143 234.487 180.934 C 234.487 177.068 237.621 173.934 241.487 173.934 L 241.687 173.934 L 238.087 170.334 C 237.009 169.256 237.502 167.416 238.975 167.022 C 239.658 166.838 240.387 167.034 240.887 167.534 L 244.287 170.934 L 244.487 170.934 C 247.787 170.934 250.487 173.634 250.487 176.934 L 250.487 177.934 C 250.487 179.039 249.592 179.934 248.487 179.934 L 247.487 179.934 C 245.83 179.934 244.487 181.277 244.487 182.934"
        style="stroke-linecap: round; fill: none; stroke: rgb(0, 0, 0); stroke-width: 1.66684px;"></path>
      <path
        d="M 241.487 179.934 C 243.796 179.931 245.243 182.429 244.091 184.431 C 243.987 184.611 243.865 184.779 243.727 184.934"
        style="stroke-linecap: round; fill: none; stroke: rgb(0, 0, 0); stroke-width: 1.66684px;"></path>
      <path d="M 246.487 175.934 L 246.497 175.934"
        style="stroke-linecap: round; fill: none; stroke: rgb(0, 0, 0); stroke-width: 1.66684px;"></path>
    </g>
  </g>
</svg>
